<?xml version="1.0" encoding="UTF-8"?>
<svg width="105px" height="121px" viewBox="0 0 105 121" version="1.1" xmlns="http://www.w3.org/2000/svg" xmlns:xlink="http://www.w3.org/1999/xlink">
    <!-- Generator: Sketch 53.1 (72631) - https://sketchapp.com -->
    <title>icon-challenges</title>
    <desc>Created with Sketch.</desc>
    <defs>
        <polygon id="path-1" points="0 0.00589815498 104.925033 0.00589815498 104.925033 107.919618 0 107.919618"></polygon>
        <path d="M0.676205761,13.662 C0.676205761,13.662 -9.38425103,69.984288 48.462677,98.84358 L48.462677,98.84358 C106.309006,69.984288 96.2489486,13.662 96.2489486,13.662 L96.2489486,13.662 L48.462677,0.163152" id="path-3"></path>
        <path d="M0.676205761,13.662 C0.676205761,13.662 -9.38425103,69.984288 48.462677,98.84358 L48.462677,98.84358 C106.309006,69.984288 96.2489486,13.662 96.2489486,13.662 L96.2489486,13.662 L48.462677,0.163152" id="path-5"></path>
        <polygon id="path-7" points="0.02566 0.157914581 16.0728826 0.157914581 16.0728826 6.55741935 0.02566 6.55741935"></polygon>
        <polygon id="path-9" points="0.150532164 0.157914581 16.19776 0.157914581 16.19776 6.55741935 0.150532164 6.55741935"></polygon>
    </defs>
    <g id="Page-1" stroke="none" stroke-width="1" fill="none" fill-rule="evenodd">
        <g id="Challenges" transform="translate(-417.000000, -331.000000)">
            <g id="Banner" transform="translate(390.000000, 168.000000)">
                <g id="icon-challenges" transform="translate(27.000000, 163.000000)">
                    <g id="Group-6">
                        <g id="Group-3">
                            <mask id="mask-2" fill="white">
                                <use xlink:href="#path-1"></use>
                            </mask>
                            <g id="Clip-2"></g>
                            <path d="M50.6688878,107.019153 C36.927462,100.121101 25.7389734,91.1082819 17.41423,80.2309683 C10.729962,71.4971159 5.88339354,61.5694849 3.01006654,50.7242524 C-1.87522814,32.286341 0.628602662,17.6529387 0.737595057,17.0390125 L1.17336502,14.5841048 L52.4626711,0.00589815498 L103.751778,14.5841048 L104.187747,17.0390125 C104.29634,17.6529387 106.800171,32.286341 101.915076,50.7242524 C99.0411502,61.5694849 94.194981,71.4971159 87.5109125,80.2309683 C79.1859696,91.1082819 67.9976806,100.121101 54.2564544,107.019153 L52.4626711,107.919618 L50.6688878,107.019153 Z" id="Fill-1" fill="#FF9F00" mask="url(#mask-2)"></path>
                        </g>
                        <path d="M100.256475,17.7343373 L52.4625114,4.14945166 L4.66874715,17.7343373 C4.66874715,17.7343373 -5.39328707,74.4156066 52.4625114,103.458839 C110.317911,74.4156066 100.256475,17.7343373 100.256475,17.7343373" id="Fill-4" fill="#FFC600"></path>
                    </g>
                    <g id="Group-13" transform="translate(4.000000, 4.000000)">
                        <g id="Group-9">
                            <mask id="mask-4" fill="white">
                                <use xlink:href="#path-3"></use>
                            </mask>
                            <g id="Clip-8"></g>
                            <path d="M23.0251654,62.7716034 L23.0251654,62.7716034 C20.6807992,60.6155814 20.5422848,56.9826774 22.7154041,54.6569694 L94.2702683,-21.9151746 C96.4435872,-24.2408826 100.105637,-24.3784926 102.449803,-22.2224706 L102.449803,-22.2224706 C104.79417,-20.0664486 104.932884,-16.4335446 102.759565,-14.1078366 L31.2047004,62.4643074 C29.0315811,64.7900154 25.3693321,64.9276254 23.0251654,62.7716034" id="Fill-7" fill="#FFDA00" mask="url(#mask-4)"></path>
                        </g>
                        <g id="Group-12">
                            <mask id="mask-6" fill="white">
                                <use xlink:href="#path-5"></use>
                            </mask>
                            <g id="Clip-11"></g>
                            <path d="M23.4243424,90.2936034 L23.4243424,90.2936034 C21.0799761,88.1375814 20.9414617,84.5046774 23.1145811,82.1789694 L94.6694453,5.6068254 C96.8427642,3.2811174 100.504814,3.1435074 102.84898,5.2995294 L102.84898,5.2995294 C105.193347,7.4555514 105.33206,11.0884554 103.158742,13.4141634 L31.6038774,89.9863074 C29.430758,92.3120154 25.7685091,92.4496254 23.4243424,90.2936034" id="Fill-10" fill="#FFDA00" mask="url(#mask-6)"></path>
                        </g>
                    </g>
                    <g id="Group-44" transform="translate(6.000000, 0.000000)">
                        <path d="M47.23826,20.5390694 L55.88546,37.9474281 C56.02786,38.2337688 56.30286,38.4322797 56.62106,38.4781817 L75.95706,41.2698539 C76.75806,41.385503 77.07786,42.363552 76.49826,42.9249068 L62.50666,56.4755159 C62.27626,56.6984681 62.17146,57.019583 62.22586,57.3343391 L65.52866,76.4678952 C65.66566,77.2607468 64.82806,77.8652217 64.11166,77.4908526 L46.81706,68.457312 C46.53246,68.3086772 46.19246,68.3086772 45.90806,68.457312 L28.61346,77.4908526 C27.89686,77.8652217 27.05926,77.2607468 27.19626,76.4678952 L30.49926,57.3343391 C30.55346,57.019583 30.44866,56.6984681 30.21826,56.4755159 L16.22666,42.9249068 C15.64706,42.363552 15.96706,41.385503 16.76786,41.2698539 L36.10386,38.4781817 C36.42206,38.4322797 36.69706,38.2337688 36.83946,37.9474281 L45.48666,20.5390694 C45.84486,19.8177533 46.88006,19.8177533 47.23826,20.5390694" id="Fill-14" fill="#FFFFFF"></path>
                        <path d="M97.74938,14.5437401 L46.39438,0.0146846452 L46.39438,107.604649 L48.15978,106.722576 C61.92718,99.8436446 73.13698,90.8558072 81.47758,80.0086434 C88.17438,71.2988008 93.02978,61.3988859 95.90918,50.5837143 C100.80358,32.1969092 98.29518,17.6038692 98.18618,16.9916446 L97.74938,14.5437401 Z" id="Fill-16" fill-opacity="0.3" fill="#FF9F00"></path>
                        <path d="M14.50506,93.3939855 C14.46306,93.1899107 13.43426,88.3698101 9.72406,86.1355185 C6.01406,83.9010281 1.23706,85.2236397 1.03526,85.2812655 C0.42246,85.4557326 0.04786,86.0697455 0.17546,86.6905146 C0.21746,86.8945894 1.24646,91.7144914 4.95646,93.9489817 C7.43586,95.4422849 10.39166,95.3469043 12.13986,95.1020939 C13.00786,94.9804836 13.57806,94.8223107 13.64506,94.8030359 C14.25846,94.6287675 14.63286,94.0147546 14.50506,93.3939855" id="Fill-18" fill="#FFDF65"></path>
                        <path d="M13.6453,94.8032147 C13.9517,94.7159812 14.1987,94.5186625 14.3529,94.2659037 L0.3277,85.8187554 C0.1735,86.0715141 0.1117,86.3801102 0.1755,86.6904947 C0.2177,86.8945695 1.2467,91.7144715 4.9567,93.9489618 C7.4361,95.442265 10.3917,95.3466857 12.1401,95.1020741 C13.0079,94.9806625 13.5783,94.8222908 13.6453,94.8032147" id="Fill-20" fill="#FFC41F"></path>
                        <path d="M26.79276,104.763319 C26.66536,104.597794 23.62716,100.703481 19.30796,100.296524 C14.98876,99.8893677 11.26796,103.146815 11.11176,103.285515 C10.63636,103.707972 10.56796,104.422532 10.95516,104.926261 C11.08216,105.091786 14.12056,108.985899 18.43956,109.393055 C18.97956,109.443726 19.50936,109.437566 20.02456,109.387293 C23.63276,109.034782 26.49916,106.525675 26.63616,106.404065 C27.11156,105.981608 27.17976,105.266849 26.79276,104.763319" id="Fill-22" fill="#FFDF65"></path>
                        <path d="M20.02458,109.387293 C23.63278,109.034782 26.49918,106.525675 26.63618,106.404065 C26.87378,106.192836 27.00978,105.908681 27.03778,105.614194 L10.70998,104.075386 C10.68178,104.369874 10.76158,104.674495 10.95498,104.926261 C11.08218,105.091786 14.12058,108.986098 18.43958,109.393055 C18.97938,109.443726 19.50938,109.437566 20.02458,109.387293" id="Fill-24" fill="#FFC41F"></path>
                        <path d="M40.7488,113.084247 C40.5768,112.96522 36.4848,110.181496 32.2474,111.106887 C28.0102,112.032476 25.4706,116.264396 25.3646,116.444229 C25.042,116.990879 25.1972,117.691927 25.7206,118.053777 C25.8452,118.139818 28.0238,119.622391 30.825,120.083398 C31.8934,120.259256 33.0524,120.286479 34.222,120.031137 C38.4594,119.105547 40.9988,114.873627 41.1048,114.693795 C41.4276,114.147343 41.2724,113.446097 40.7488,113.084247" id="Fill-26" fill="#FFDF65"></path>
                        <g id="Group-30" transform="translate(25.200000, 113.661935)">
                            <mask id="mask-8" fill="white">
                                <use xlink:href="#path-7"></use>
                            </mask>
                            <g id="Clip-29"></g>
                            <path d="M15.90486,1.03203845 C16.06626,0.758613935 16.10826,0.446838452 16.04426,0.157914581 L0.02566,3.65659587 C0.08946,3.94532103 0.25906,4.21099587 0.52086,4.39202039 C0.64546,4.47826039 2.82406,5.96063458 5.62526,6.42164103 C6.69326,6.5974991 7.85246,6.62492103 9.02206,6.36938039 C13.25926,5.44379071 15.79886,1.211672 15.90486,1.03203845" id="Fill-28" fill="#FFC41F" mask="url(#mask-8)"></path>
                        </g>
                        <path d="M78.9783,94.8030955 C79.0453,94.8223703 79.6157,94.9805432 80.4835,95.1021535 C82.2319,95.3467652 85.1875,95.4423445 87.6667,93.9490413 C91.3769,91.714551 92.4059,86.894649 92.4479,86.6905742 C92.5755,86.0698052 92.2009,85.4557923 91.5881,85.2813252 C91.3863,85.2236994 86.6093,83.900889 82.8991,86.1353794 C79.1893,88.3698697 78.1603,93.1899703 78.1181,93.3940452 C77.9907,94.0148142 78.3651,94.6286284 78.9783,94.8030955" id="Fill-31" fill="#FFDF65"></path>
                        <path d="M80.48338,95.1020343 C82.23158,95.3468446 85.18738,95.442424 87.66678,93.9491208 C91.37678,91.7144317 92.40558,86.8945298 92.44778,86.690455 C92.51178,86.3802692 92.44978,86.071673 92.29578,85.8187156 L78.27058,94.2660627 C78.42478,94.5188214 78.67158,94.7159414 78.97818,94.803175 C79.04498,94.8224498 79.61538,94.9806227 80.48338,95.1020343" id="Fill-33" fill="#FFC41F"></path>
                        <path d="M65.98728,106.403985 C66.12428,106.525595 68.99068,109.034901 72.59888,109.387213 C73.11408,109.437487 73.64388,109.443846 74.18368,109.392976 C78.50288,108.986019 81.54128,105.091905 81.66828,104.926181 C82.05548,104.422651 81.98708,103.707892 81.51168,103.285634 C81.35528,103.146736 77.63468,99.8892883 73.31548,100.296643 C68.99628,100.703601 65.95808,104.597714 65.83068,104.763239 C65.44368,105.26677 65.51188,105.981528 65.98728,106.403985" id="Fill-35" fill="#FFDF65"></path>
                        <path d="M74.18378,109.392976 C78.50298,108.986019 81.54118,105.091905 81.66838,104.926181 C81.86178,104.674416 81.94138,104.369794 81.91318,104.075505 L65.58558,105.614313 C65.61358,105.908602 65.74958,106.192955 65.98738,106.403985 C66.12418,106.525595 68.99058,109.034901 72.59878,109.387213 C73.11398,109.437487 73.64398,109.443846 74.18378,109.392976" id="Fill-37" fill="#FFC41F"></path>
                        <path d="M51.51834,114.693795 C51.62434,114.873627 54.16414,119.105746 58.40134,120.031137 C59.57114,120.286678 60.73014,120.259256 61.79814,120.083398 C64.59954,119.622391 66.77794,118.139818 66.90254,118.053777 C67.42614,117.691927 67.58114,116.990879 67.25874,116.444229 C67.15274,116.264396 64.61334,112.032476 60.37574,111.106887 C56.13874,110.181496 52.04674,112.96522 51.87454,113.084247 C51.35094,113.446097 51.19594,114.147343 51.51834,114.693795" id="Fill-39" fill="#FFDF65"></path>
                        <g id="Group-43" transform="translate(51.200000, 113.661935)">
                            <mask id="mask-10" fill="white">
                                <use xlink:href="#path-9"></use>
                            </mask>
                            <g id="Clip-42"></g>
                            <path d="M7.20116,6.36938039 C8.37096,6.62492103 9.52996,6.5974991 10.59816,6.42164103 C13.39936,5.96063458 15.57796,4.47826039 15.70256,4.39202039 C15.96416,4.21099587 16.13376,3.94532103 16.19776,3.65659587 L0.17916,0.157914581 C0.11516,0.446838452 0.15716,0.758613935 0.31836,1.03203845 C0.42436,1.211672 2.96396,5.44379071 7.20116,6.36938039" id="Fill-41" fill="#FFC41F" mask="url(#mask-10)"></path>
                        </g>
                    </g>
                </g>
            </g>
        </g>
    </g>
</svg>